Coordinates
version=1
nRows=5
nColumns=63
inDegrees=yes

Units are S.I. units (second, meters, Newtons, ...)
If the header above contains a line with 'inDegrees', this indicates whether rotational values are in degrees (yes) or radians (no).

endheader
time	pelvis_tilt	pelvis_list	pelvis_rotation	pelvis_tx	pelvis_ty	pelvis_tz	hip_flexion_r	hip_adduction_r	hip_rotation_r	knee_angle_r	knee_angle_r_beta	ankle_angle_r	subtalar_angle_r	mtp_angle_r	hip_flexion_l	hip_adduction_l	hip_rotation_l	knee_angle_l	knee_angle_l_beta	ankle_angle_l	subtalar_angle_l	mtp_angle_l	L5_S1_Flex_Ext	L5_S1_Lat_Bending	L5_S1_axial_rotation	L4_L5_Flex_Ext	L4_L5_Lat_Bending	L4_L5_axial_rotation	L3_L4_Flex_Ext	L3_L4_Lat_Bending	L3_L4_axial_rotation	L2_L3_Flex_Ext	L2_L3_Lat_Bending	L2_L3_axial_rotation	L1_L2_Flex_Ext	L1_L2_Lat_Bending	L1_L2_axial_rotation	L1_T12_Flex_Ext	L1_T12_Lat_Bending	L1_T12_axial_rotation	Abs_r3	Abs_r2	Abs_r1	Abs_t1	Abs_t2	neck_flexion	neck_bending	neck_rotation	arm_flex_r	arm_add_r	arm_rot_r	elbow_flex_r	pro_sup_r	wrist_flex_r	wrist_dev_r	arm_flex_l	arm_add_l	arm_rot_l	elbow_flex_l	pro_sup_l	wrist_flex_l	wrist_dev_l
      2.70212766	     -0.50551048	     -9.80762062	    107.53237645	      0.31035762	      0.67841850	      0.92835653	     11.43443371	      3.73473704	     -2.75884028	      1.97181434	      0.03441465	     17.74108870	    -10.71529485	      0.00000000	     20.83450968	     -2.36056213	     -2.02589952	     18.63213425	      0.32519209	     25.00526272	     13.79087395	      0.00000000	     -0.13446018	      0.27077252	      0.38941224	     -0.24970599	      0.36012745	      0.41375051	     -0.22090462	      0.65835630	      0.41375051	     -0.15367454	      0.65835630	      0.34073571	     -0.12485972	      0.55215932	      0.31639745	     -0.07683054	      0.41942663	      0.29205918	     -0.96043559	      3.06303288	      2.16579407	      0.00000000	      0.00000000	     14.27735003	      3.84684164	    -11.59265661	     26.76925900	     -5.44873352	     23.32084154	     87.08579101	     83.76714840	      5.80318796	      8.02063899	     24.75408782	    -15.99998978	     19.42697777	     93.47027015	     88.28664664	    -16.46247227	     -7.19649421
      2.72340426	     -0.61849371	     -9.89783444	    107.02031413	      0.30905641	      0.67776293	      0.93065553	     11.71276455	      3.52715632	     -2.76653514	      2.28608342	      0.03989968	     17.74311094	    -10.30020315	      0.00000000	     20.96616826	     -2.15343135	     -1.88662938	     18.65132134	      0.32552697	     25.23541799	     13.37574788	      0.00000000	     -0.09518184	      0.31629125	      0.45034264	     -0.17676219	      0.42066737	      0.47848906	     -0.15637424	      0.76903055	      0.47848906	     -0.10878332	      0.76903055	      0.39404981	     -0.08838585	      0.64498113	      0.36590340	     -0.05438690	      0.48993515	      0.33775698	     -0.67987435	      3.57794992	      2.50467066	      0.00000000	      0.00000000	     13.89118987	      3.21734415	    -12.02567175	     27.56473588	     -5.12968577	     22.83138754	     85.96676154	     82.77558255	      5.00655020	     10.17770206	     26.52731233	    -16.51981295	     20.63708356	     91.73179383	     87.97247487	    -16.47004546	     -6.24576158
      2.74468085	     -0.80806422	     -9.98112238	    106.22195606	      0.30798688	      0.67715070	      0.93295568	     12.02521577	      3.27682124	     -2.77329123	      2.73168396	      0.04767688	     17.82967146	     -9.46618599	      0.00000000	     20.96333293	     -1.94389811	     -1.87318087	     18.51755633	      0.32319233	     25.42582609	     12.85093873	      0.00000000	     -0.05726539	      0.35245083	      0.55863689	     -0.10634755	      0.46875961	      0.59355170	     -0.09408131	      0.85694895	      0.59355170	     -0.06544861	      0.85694895	      0.48880728	     -0.05317664	      0.71871774	      0.45389247	     -0.03272144	      0.54594634	      0.41897767	     -0.40904095	      3.98699431	      3.10697079	      0.00000000	      0.00000000	     13.10697568	      2.50953920	    -12.90613485	     28.10714846	     -5.08963183	     22.41847010	     85.18172417	     82.68625507	      5.40987774	     12.35787872	     27.97615251	    -17.02033918	     22.05016722	     90.51221590	     87.69424405	    -16.72395914	     -4.22017804
      2.76595745	     -1.20640062	    -10.10090121	    105.31926196	      0.30739302	      0.67652419	      0.93514038	     12.39204376	      2.83040862	     -3.30049167	      3.32981050	      0.05811616	     18.29714112	     -7.80273902	      0.00000000	     20.86163599	     -1.58849450	     -2.11627037	     18.25419315	      0.31859577	     25.45629511	     12.49492071	      0.00000000	     -0.02331300	      0.36191962	      0.69579291	     -0.04329457	      0.48135309	      0.73927997	     -0.03830093	      0.87997136	      0.73927997	     -0.02664443	      0.87997136	      0.60881880	     -0.02164845	      0.73802649	      0.56533174	     -0.01332105	      0.56061349	      0.52184469	     -0.16652242	      4.09410711	      3.86979145	      0.00000000	      0.00000000	     12.05991923	      1.64959571	    -13.77594994	     28.31202899	     -4.93181850	     21.44373877	     84.48583413	     83.49063325	      8.67775241	     14.44177128	     29.39666403	    -17.37465038	     23.57948783	     89.55841986	     87.59170589	    -16.86458308	     -1.05015780
      2.78723404	     -1.60907339	    -10.22101215	    104.32373935	      0.30700754	      0.67578794	      0.93705145	     12.74966595	      2.43967034	     -3.14789211	      3.87160504	      0.06757226	     18.57646756	     -7.05938550	      0.00000000	     20.68166201	     -1.29377924	     -2.59175149	     17.88162455	      0.31209322	     25.50780141	     12.33325525	      0.00000000	      0.00726165	      0.37660766	      0.83845428	      0.01348560	      0.50088819	      0.89085767	      0.01193016	      0.91568387	      0.89085767	      0.00829934	      0.91568387	      0.73364749	      0.00674316	      0.76797834	      0.68124410	      0.00414930	      0.58336527	      0.62884071	      0.05186921	      4.26026119	      4.66323115	      0.00000000	      0.00000000	     10.83723497	      0.25452696	    -14.21282894	     28.47927038	     -5.01782982	     21.06961286	     83.91337140	     82.67407394	     11.06626207	     15.80590518	     30.70424055	    -17.38405573	     24.86142284	     88.79977355	     87.14566052	    -16.86484877	      2.88692637
